<mxfile host="app.diagrams.net" modified="2024-03-27T09:44:04.954Z" agent="Mozilla/5.0 (Windows NT 10.0; Win64; x64) AppleWebKit/537.36 (KHTML, like Gecko) Chrome/123.0.0.0 Safari/537.36" etag="LzWc_rrLJ-Y90oW_XC9m" version="24.2.0" type="github">
  <diagram name="Page-1" id="Cehq5Rl2srKjzqsriS75">
    <mxGraphModel dx="1434" dy="746" grid="1" gridSize="10" guides="1" tooltips="1" connect="1" arrows="1" fold="1" page="1" pageScale="1" pageWidth="827" pageHeight="1169" math="0" shadow="0">
      <root>
        <mxCell id="0" />
        <mxCell id="1" parent="0" />
        <mxCell id="6aPJdIJ2g7UYynQhxhDT-1" style="edgeStyle=orthogonalEdgeStyle;rounded=0;orthogonalLoop=1;jettySize=auto;html=1;" edge="1" parent="1" source="6aPJdIJ2g7UYynQhxhDT-8">
          <mxGeometry relative="1" as="geometry">
            <mxPoint x="167.16999999999996" y="290" as="targetPoint" />
          </mxGeometry>
        </mxCell>
        <mxCell id="6aPJdIJ2g7UYynQhxhDT-2" value="(1) &lt;br&gt;List Item Check" style="edgeLabel;html=1;align=center;verticalAlign=middle;resizable=0;points=[];" connectable="0" vertex="1" parent="6aPJdIJ2g7UYynQhxhDT-1">
          <mxGeometry x="0.2362" y="-1" relative="1" as="geometry">
            <mxPoint as="offset" />
          </mxGeometry>
        </mxCell>
        <mxCell id="6aPJdIJ2g7UYynQhxhDT-3" style="edgeStyle=orthogonalEdgeStyle;rounded=0;orthogonalLoop=1;jettySize=auto;html=1;" edge="1" parent="1" source="6aPJdIJ2g7UYynQhxhDT-8">
          <mxGeometry relative="1" as="geometry">
            <mxPoint x="277.16999999999996" y="290" as="targetPoint" />
          </mxGeometry>
        </mxCell>
        <mxCell id="6aPJdIJ2g7UYynQhxhDT-4" value="(2)&lt;br&gt;List item update" style="edgeLabel;html=1;align=center;verticalAlign=middle;resizable=0;points=[];" connectable="0" vertex="1" parent="6aPJdIJ2g7UYynQhxhDT-3">
          <mxGeometry x="0.1273" relative="1" as="geometry">
            <mxPoint as="offset" />
          </mxGeometry>
        </mxCell>
        <mxCell id="6aPJdIJ2g7UYynQhxhDT-5" style="edgeStyle=orthogonalEdgeStyle;rounded=0;orthogonalLoop=1;jettySize=auto;html=1;entryX=0.5;entryY=0;entryDx=0;entryDy=0;" edge="1" parent="1" source="6aPJdIJ2g7UYynQhxhDT-8" target="6aPJdIJ2g7UYynQhxhDT-33">
          <mxGeometry relative="1" as="geometry" />
        </mxCell>
        <mxCell id="6aPJdIJ2g7UYynQhxhDT-6" value="Is item &quot;Migrable&quot; ?" style="edgeLabel;html=1;align=center;verticalAlign=middle;resizable=0;points=[];" connectable="0" vertex="1" parent="6aPJdIJ2g7UYynQhxhDT-5">
          <mxGeometry x="-0.0282" relative="1" as="geometry">
            <mxPoint as="offset" />
          </mxGeometry>
        </mxCell>
        <mxCell id="6aPJdIJ2g7UYynQhxhDT-7" style="edgeStyle=orthogonalEdgeStyle;rounded=0;orthogonalLoop=1;jettySize=auto;html=1;" edge="1" parent="1" source="6aPJdIJ2g7UYynQhxhDT-24" target="6aPJdIJ2g7UYynQhxhDT-36">
          <mxGeometry relative="1" as="geometry">
            <mxPoint x="397.16999999999996" y="530" as="targetPoint" />
          </mxGeometry>
        </mxCell>
        <mxCell id="6aPJdIJ2g7UYynQhxhDT-8" value="" style="sketch=0;aspect=fixed;pointerEvents=1;shadow=0;dashed=0;html=1;strokeColor=none;labelPosition=center;verticalLabelPosition=bottom;verticalAlign=top;align=center;shape=mxgraph.azure.startup_task;fillColor=#0078D7;" vertex="1" parent="1">
          <mxGeometry x="207.16999999999996" y="380" width="48" height="50" as="geometry" />
        </mxCell>
        <mxCell id="6aPJdIJ2g7UYynQhxhDT-9" style="edgeStyle=orthogonalEdgeStyle;rounded=0;orthogonalLoop=1;jettySize=auto;html=1;" edge="1" parent="1" source="6aPJdIJ2g7UYynQhxhDT-11" target="6aPJdIJ2g7UYynQhxhDT-19">
          <mxGeometry relative="1" as="geometry" />
        </mxCell>
        <mxCell id="6aPJdIJ2g7UYynQhxhDT-10" value="PUSH" style="edgeLabel;html=1;align=center;verticalAlign=middle;resizable=0;points=[];" connectable="0" vertex="1" parent="6aPJdIJ2g7UYynQhxhDT-9">
          <mxGeometry x="-0.386" y="-1" relative="1" as="geometry">
            <mxPoint as="offset" />
          </mxGeometry>
        </mxCell>
        <mxCell id="6aPJdIJ2g7UYynQhxhDT-11" value="" style="sketch=0;aspect=fixed;pointerEvents=1;shadow=0;dashed=0;html=1;strokeColor=none;labelPosition=center;verticalLabelPosition=bottom;verticalAlign=top;align=center;shape=mxgraph.azure.startup_task;fillColor=#0078D7;" vertex="1" parent="1">
          <mxGeometry x="57.16999999999996" y="380" width="48" height="50" as="geometry" />
        </mxCell>
        <mxCell id="6aPJdIJ2g7UYynQhxhDT-12" style="edgeStyle=orthogonalEdgeStyle;rounded=0;orthogonalLoop=1;jettySize=auto;html=1;entryX=1;entryY=0.5;entryDx=0;entryDy=0;" edge="1" parent="1" source="6aPJdIJ2g7UYynQhxhDT-16" target="6aPJdIJ2g7UYynQhxhDT-18">
          <mxGeometry relative="1" as="geometry" />
        </mxCell>
        <mxCell id="6aPJdIJ2g7UYynQhxhDT-13" value="PUSH (Status update)" style="edgeLabel;html=1;align=center;verticalAlign=middle;resizable=0;points=[];" connectable="0" vertex="1" parent="6aPJdIJ2g7UYynQhxhDT-12">
          <mxGeometry x="-0.4693" y="3" relative="1" as="geometry">
            <mxPoint as="offset" />
          </mxGeometry>
        </mxCell>
        <mxCell id="6aPJdIJ2g7UYynQhxhDT-14" style="edgeStyle=orthogonalEdgeStyle;rounded=0;orthogonalLoop=1;jettySize=auto;html=1;" edge="1" parent="1" source="6aPJdIJ2g7UYynQhxhDT-16" target="6aPJdIJ2g7UYynQhxhDT-45">
          <mxGeometry relative="1" as="geometry" />
        </mxCell>
        <mxCell id="6aPJdIJ2g7UYynQhxhDT-15" value="IS OK" style="edgeLabel;html=1;align=center;verticalAlign=middle;resizable=0;points=[];" connectable="0" vertex="1" parent="6aPJdIJ2g7UYynQhxhDT-14">
          <mxGeometry x="-0.1917" y="-2" relative="1" as="geometry">
            <mxPoint as="offset" />
          </mxGeometry>
        </mxCell>
        <mxCell id="6aPJdIJ2g7UYynQhxhDT-16" value="" style="sketch=0;aspect=fixed;pointerEvents=1;shadow=0;dashed=0;html=1;strokeColor=none;labelPosition=center;verticalLabelPosition=bottom;verticalAlign=top;align=center;shape=mxgraph.azure.startup_task;fillColor=#0078D7;" vertex="1" parent="1">
          <mxGeometry x="397.16999999999996" y="300" width="48" height="50" as="geometry" />
        </mxCell>
        <mxCell id="6aPJdIJ2g7UYynQhxhDT-17" value="SharePoint (Lists)" style="swimlane;fontStyle=0;childLayout=stackLayout;horizontal=1;startSize=26;fillColor=#fff2cc;horizontalStack=0;resizeParent=1;resizeParentMax=0;resizeLast=0;collapsible=1;marginBottom=0;html=1;strokeColor=#d6b656;" vertex="1" parent="1">
          <mxGeometry x="161.16999999999996" y="180" width="140" height="104" as="geometry" />
        </mxCell>
        <mxCell id="6aPJdIJ2g7UYynQhxhDT-18" value="Item 1" style="text;strokeColor=none;fillColor=none;align=left;verticalAlign=top;spacingLeft=4;spacingRight=4;overflow=hidden;rotatable=0;points=[[0,0.5],[1,0.5]];portConstraint=eastwest;whiteSpace=wrap;html=1;" vertex="1" parent="6aPJdIJ2g7UYynQhxhDT-17">
          <mxGeometry y="26" width="140" height="26" as="geometry" />
        </mxCell>
        <mxCell id="6aPJdIJ2g7UYynQhxhDT-19" value="Item 2" style="text;strokeColor=none;fillColor=none;align=left;verticalAlign=top;spacingLeft=4;spacingRight=4;overflow=hidden;rotatable=0;points=[[0,0.5],[1,0.5]];portConstraint=eastwest;whiteSpace=wrap;html=1;" vertex="1" parent="6aPJdIJ2g7UYynQhxhDT-17">
          <mxGeometry y="52" width="140" height="26" as="geometry" />
        </mxCell>
        <mxCell id="6aPJdIJ2g7UYynQhxhDT-20" value="Item 3" style="text;strokeColor=none;fillColor=none;align=left;verticalAlign=top;spacingLeft=4;spacingRight=4;overflow=hidden;rotatable=0;points=[[0,0.5],[1,0.5]];portConstraint=eastwest;whiteSpace=wrap;html=1;" vertex="1" parent="6aPJdIJ2g7UYynQhxhDT-17">
          <mxGeometry y="78" width="140" height="26" as="geometry" />
        </mxCell>
        <mxCell id="6aPJdIJ2g7UYynQhxhDT-21" value="SharePoint Site" style="swimlane;fillColor=#dae8fc;strokeColor=#6c8ebf;" vertex="1" parent="1">
          <mxGeometry x="127.16999999999996" y="40" width="200" height="280" as="geometry" />
        </mxCell>
        <mxCell id="6aPJdIJ2g7UYynQhxhDT-23" value="" style="points=[[0.5,0,0],[0.765,0.48,0],[0.99,0.98,0],[0.5,1,0],[0.01,0.98,0],[0.235,0.48,0]];verticalLabelPosition=bottom;sketch=0;html=1;verticalAlign=top;aspect=fixed;align=center;pointerEvents=1;shape=mxgraph.cisco19.ldap;fillColor=#005073;strokeColor=none;" vertex="1" parent="1">
          <mxGeometry x="40" y="535" width="82.34" height="70" as="geometry" />
        </mxCell>
        <mxCell id="6aPJdIJ2g7UYynQhxhDT-24" value="" style="sketch=0;pointerEvents=1;shadow=0;dashed=0;html=1;strokeColor=none;fillColor=#505050;labelPosition=center;verticalLabelPosition=bottom;verticalAlign=top;outlineConnect=0;align=center;shape=mxgraph.office.concepts.powershell;" vertex="1" parent="1">
          <mxGeometry x="247.16999999999996" y="420" width="30" height="30" as="geometry" />
        </mxCell>
        <mxCell id="6aPJdIJ2g7UYynQhxhDT-25" value="" style="sketch=0;pointerEvents=1;shadow=0;dashed=0;html=1;strokeColor=none;fillColor=#505050;labelPosition=center;verticalLabelPosition=bottom;verticalAlign=top;outlineConnect=0;align=center;shape=mxgraph.office.concepts.powershell;" vertex="1" parent="1">
          <mxGeometry x="437.16999999999996" y="340" width="30" height="30" as="geometry" />
        </mxCell>
        <mxCell id="6aPJdIJ2g7UYynQhxhDT-26" value="" style="sketch=0;pointerEvents=1;shadow=0;dashed=0;html=1;strokeColor=none;fillColor=#505050;labelPosition=center;verticalLabelPosition=bottom;verticalAlign=top;outlineConnect=0;align=center;shape=mxgraph.office.concepts.powershell;" vertex="1" parent="1">
          <mxGeometry x="97.16999999999996" y="420" width="30" height="30" as="geometry" />
        </mxCell>
        <mxCell id="6aPJdIJ2g7UYynQhxhDT-27" style="edgeStyle=orthogonalEdgeStyle;rounded=0;orthogonalLoop=1;jettySize=auto;html=1;entryX=0.5;entryY=0;entryDx=0;entryDy=0;entryPerimeter=0;" edge="1" parent="1" source="6aPJdIJ2g7UYynQhxhDT-11" target="6aPJdIJ2g7UYynQhxhDT-23">
          <mxGeometry relative="1" as="geometry" />
        </mxCell>
        <mxCell id="6aPJdIJ2g7UYynQhxhDT-28" value="PULL" style="edgeLabel;html=1;align=center;verticalAlign=middle;resizable=0;points=[];" connectable="0" vertex="1" parent="6aPJdIJ2g7UYynQhxhDT-27">
          <mxGeometry x="-0.2571" relative="1" as="geometry">
            <mxPoint as="offset" />
          </mxGeometry>
        </mxCell>
        <mxCell id="6aPJdIJ2g7UYynQhxhDT-29" style="edgeStyle=orthogonalEdgeStyle;rounded=0;orthogonalLoop=1;jettySize=auto;html=1;" edge="1" parent="1" source="6aPJdIJ2g7UYynQhxhDT-33" target="6aPJdIJ2g7UYynQhxhDT-35">
          <mxGeometry relative="1" as="geometry" />
        </mxCell>
        <mxCell id="6aPJdIJ2g7UYynQhxhDT-30" value="NO" style="edgeLabel;html=1;align=center;verticalAlign=middle;resizable=0;points=[];" connectable="0" vertex="1" parent="6aPJdIJ2g7UYynQhxhDT-29">
          <mxGeometry x="-0.2593" y="-1" relative="1" as="geometry">
            <mxPoint as="offset" />
          </mxGeometry>
        </mxCell>
        <mxCell id="6aPJdIJ2g7UYynQhxhDT-31" style="edgeStyle=orthogonalEdgeStyle;rounded=0;orthogonalLoop=1;jettySize=auto;html=1;" edge="1" parent="1" source="6aPJdIJ2g7UYynQhxhDT-33" target="6aPJdIJ2g7UYynQhxhDT-39">
          <mxGeometry relative="1" as="geometry" />
        </mxCell>
        <mxCell id="6aPJdIJ2g7UYynQhxhDT-32" value="YES" style="edgeLabel;html=1;align=center;verticalAlign=middle;resizable=0;points=[];" connectable="0" vertex="1" parent="6aPJdIJ2g7UYynQhxhDT-31">
          <mxGeometry x="-0.4074" y="-1" relative="1" as="geometry">
            <mxPoint as="offset" />
          </mxGeometry>
        </mxCell>
        <mxCell id="6aPJdIJ2g7UYynQhxhDT-33" value="" style="rhombus;whiteSpace=wrap;html=1;" vertex="1" parent="1">
          <mxGeometry x="208.16999999999996" y="500" width="46" height="40" as="geometry" />
        </mxCell>
        <mxCell id="6aPJdIJ2g7UYynQhxhDT-34" value="" style="verticalLabelPosition=bottom;html=1;verticalAlign=top;align=center;strokeColor=none;fillColor=#00BEF2;shape=mxgraph.azure.user;" vertex="1" parent="1">
          <mxGeometry x="203.41999999999996" y="640" width="47.5" height="50" as="geometry" />
        </mxCell>
        <mxCell id="6aPJdIJ2g7UYynQhxhDT-35" value="" style="shape=image;html=1;verticalAlign=top;verticalLabelPosition=bottom;labelBackgroundColor=#ffffff;imageAspect=0;aspect=fixed;image=https://cdn4.iconfinder.com/data/icons/essential-app-2/16/email-letter-inbox-send-128.png" vertex="1" parent="1">
          <mxGeometry x="211.16999999999996" y="585" width="40" height="40" as="geometry" />
        </mxCell>
        <mxCell id="6aPJdIJ2g7UYynQhxhDT-36" value="" style="sketch=0;pointerEvents=1;shadow=0;dashed=0;html=1;strokeColor=none;fillColor=#505050;labelPosition=center;verticalLabelPosition=bottom;verticalAlign=top;outlineConnect=0;align=center;shape=mxgraph.office.servers.exchange_server;" vertex="1" parent="1">
          <mxGeometry x="499.16999999999996" y="534" width="67" height="70" as="geometry" />
        </mxCell>
        <mxCell id="6aPJdIJ2g7UYynQhxhDT-37" style="edgeStyle=orthogonalEdgeStyle;rounded=0;orthogonalLoop=1;jettySize=auto;html=1;entryX=0.5;entryY=1;entryDx=0;entryDy=0;entryPerimeter=0;" edge="1" parent="1" source="6aPJdIJ2g7UYynQhxhDT-34" target="6aPJdIJ2g7UYynQhxhDT-23">
          <mxGeometry relative="1" as="geometry" />
        </mxCell>
        <mxCell id="6aPJdIJ2g7UYynQhxhDT-38" style="edgeStyle=orthogonalEdgeStyle;rounded=0;orthogonalLoop=1;jettySize=auto;html=1;entryX=0.187;entryY=0.944;entryDx=0;entryDy=0;entryPerimeter=0;" edge="1" parent="1" source="6aPJdIJ2g7UYynQhxhDT-34" target="6aPJdIJ2g7UYynQhxhDT-36">
          <mxGeometry relative="1" as="geometry" />
        </mxCell>
        <mxCell id="6aPJdIJ2g7UYynQhxhDT-39" value="Migration" style="html=1;outlineConnect=0;whiteSpace=wrap;fillColor=#AFFFAF;shape=mxgraph.archimate3.application;appType=proc;archiType=rounded;" vertex="1" parent="1">
          <mxGeometry x="287.16999999999996" y="587" width="100" height="35" as="geometry" />
        </mxCell>
        <mxCell id="6aPJdIJ2g7UYynQhxhDT-40" style="edgeStyle=orthogonalEdgeStyle;rounded=0;orthogonalLoop=1;jettySize=auto;html=1;entryX=0.5;entryY=0;entryDx=0;entryDy=0;exitX=0;exitY=0.5;exitDx=0;exitDy=0;" edge="1" parent="1" source="6aPJdIJ2g7UYynQhxhDT-49" target="6aPJdIJ2g7UYynQhxhDT-17">
          <mxGeometry relative="1" as="geometry" />
        </mxCell>
        <mxCell id="6aPJdIJ2g7UYynQhxhDT-41" style="edgeStyle=orthogonalEdgeStyle;rounded=0;orthogonalLoop=1;jettySize=auto;html=1;entryX=1;entryY=0.5;entryDx=0;entryDy=0;entryPerimeter=0;" edge="1" parent="1" source="6aPJdIJ2g7UYynQhxhDT-25" target="6aPJdIJ2g7UYynQhxhDT-39">
          <mxGeometry relative="1" as="geometry" />
        </mxCell>
        <mxCell id="6aPJdIJ2g7UYynQhxhDT-42" value="Status Checking" style="edgeLabel;html=1;align=center;verticalAlign=middle;resizable=0;points=[];" connectable="0" vertex="1" parent="6aPJdIJ2g7UYynQhxhDT-41">
          <mxGeometry x="-0.0059" y="1" relative="1" as="geometry">
            <mxPoint as="offset" />
          </mxGeometry>
        </mxCell>
        <mxCell id="6aPJdIJ2g7UYynQhxhDT-43" value="" style="edgeStyle=orthogonalEdgeStyle;rounded=0;orthogonalLoop=1;jettySize=auto;html=1;" edge="1" parent="1" source="6aPJdIJ2g7UYynQhxhDT-45" target="6aPJdIJ2g7UYynQhxhDT-46">
          <mxGeometry relative="1" as="geometry" />
        </mxCell>
        <mxCell id="6aPJdIJ2g7UYynQhxhDT-44" value="NO" style="edgeLabel;html=1;align=center;verticalAlign=middle;resizable=0;points=[];" connectable="0" vertex="1" parent="6aPJdIJ2g7UYynQhxhDT-43">
          <mxGeometry x="-0.0317" relative="1" as="geometry">
            <mxPoint y="1" as="offset" />
          </mxGeometry>
        </mxCell>
        <mxCell id="6aPJdIJ2g7UYynQhxhDT-45" value="" style="rhombus;whiteSpace=wrap;html=1;" vertex="1" parent="1">
          <mxGeometry x="547.17" y="305" width="46" height="40" as="geometry" />
        </mxCell>
        <mxCell id="6aPJdIJ2g7UYynQhxhDT-46" value="" style="whiteSpace=wrap;html=1;" vertex="1" parent="1">
          <mxGeometry x="510.16999999999996" y="175" width="120" height="60" as="geometry" />
        </mxCell>
        <mxCell id="6aPJdIJ2g7UYynQhxhDT-47" value="" style="shape=image;html=1;verticalAlign=top;verticalLabelPosition=bottom;labelBackgroundColor=#ffffff;imageAspect=0;aspect=fixed;image=https://cdn4.iconfinder.com/data/icons/essential-app-2/16/email-letter-inbox-send-128.png" vertex="1" parent="1">
          <mxGeometry x="553.17" y="185" width="40" height="40" as="geometry" />
        </mxCell>
        <mxCell id="6aPJdIJ2g7UYynQhxhDT-49" value="Power BI Service&#xa;Power BI mobile" style="shape=image;verticalLabelPosition=bottom;labelBackgroundColor=default;verticalAlign=top;aspect=fixed;imageAspect=0;image=https://github.com/microsoft/PowerBI-Icons/raw/main/PNG/Desktop.png;" vertex="1" parent="1">
          <mxGeometry x="370" y="68.4" width="71.6" height="71.6" as="geometry" />
        </mxCell>
        <mxCell id="6aPJdIJ2g7UYynQhxhDT-56" style="edgeStyle=orthogonalEdgeStyle;rounded=0;orthogonalLoop=1;jettySize=auto;html=1;entryX=1;entryY=0.5;entryDx=0;entryDy=0;" edge="1" parent="1" source="6aPJdIJ2g7UYynQhxhDT-52" target="6aPJdIJ2g7UYynQhxhDT-49">
          <mxGeometry relative="1" as="geometry" />
        </mxCell>
        <mxCell id="6aPJdIJ2g7UYynQhxhDT-52" value="" style="image;aspect=fixed;html=1;points=[];align=center;fontSize=12;image=img/lib/azure2/other/Azure_Monitor_Dashboard.svg;" vertex="1" parent="1">
          <mxGeometry x="520" y="72.6" width="68" height="63.2" as="geometry" />
        </mxCell>
        <mxCell id="6aPJdIJ2g7UYynQhxhDT-60" style="edgeStyle=orthogonalEdgeStyle;rounded=0;orthogonalLoop=1;jettySize=auto;html=1;" edge="1" parent="1" source="6aPJdIJ2g7UYynQhxhDT-57">
          <mxGeometry relative="1" as="geometry">
            <mxPoint x="590" y="98" as="targetPoint" />
          </mxGeometry>
        </mxCell>
        <mxCell id="6aPJdIJ2g7UYynQhxhDT-57" value="Utilisateur" style="shape=umlActor;verticalLabelPosition=bottom;verticalAlign=top;html=1;outlineConnect=0;" vertex="1" parent="1">
          <mxGeometry x="690" y="68" width="30" height="60" as="geometry" />
        </mxCell>
      </root>
    </mxGraphModel>
  </diagram>
</mxfile>
